HIERARCHY
ROOT Pelvis
{
	OFFSET 0.000000 0.000000 0.000000
	CHANNELS 6 Xposition Yposition Zposition Xrotation Yrotation Zrotation
	JOINT LeftUpLeg_virtual
	{
		OFFSET 0.000000 0.000000 0.000000
		CHANNELS 3 Xrotation Yrotation Zrotation
		JOINT LeftUpLeg
		{
			OFFSET 18.735201 -5.666702 -4.541200
			CHANNELS 3 Xrotation Yrotation Zrotation
			JOINT LeftLeg
			{
				OFFSET -0.021200 -31.938179 0.493100
				CHANNELS 3 Xrotation Yrotation Zrotation
				JOINT LeftFoot
				{
					OFFSET 0.021200 -31.938179 -4.336299
					CHANNELS 3 Xrotation Yrotation Zrotation
					JOINT LeftToeBase
					{
						OFFSET 0.943001 -26.722000 15.023500
						CHANNELS 3 Xrotation Yrotation Zrotation
						End Site
						{
							OFFSET 0 0 0
						}
					}
				}
			}
		}
	}
	JOINT RightUpLeg_virtual
	{
		OFFSET 0.000000 0.000000 0.000000
		CHANNELS 3 Xrotation Yrotation Zrotation
		JOINT RightUpLeg
		{
			OFFSET -18.735201 -5.666702 -4.541200
			CHANNELS 3 Xrotation Yrotation Zrotation
			JOINT RightLeg
			{
				OFFSET 0.018946 -31.938133 0.493100
				CHANNELS 3 Xrotation Yrotation Zrotation
				JOINT RightFoot
				{
					OFFSET -0.018946 -31.938126 -4.336299
					CHANNELS 3 Xrotation Yrotation Zrotation
					JOINT RightToeBase
					{
						OFFSET -0.943001 -26.722004 15.023500
						CHANNELS 3 Xrotation Yrotation Zrotation
						End Site
						{
							OFFSET 0 0 0
						}
					}
				}
			}
		}
	}
	JOINT Hips_virtual
	{
		OFFSET 0.000000 0.000000 0.000000
		CHANNELS 3 Xrotation Yrotation Zrotation
		JOINT Hips
		{
			OFFSET -0.000000 -0.000000 -0.000000
			CHANNELS 3 Xrotation Yrotation Zrotation
			JOINT Spine
			{
				OFFSET 0.000000 10.199997 -0.299500
				CHANNELS 3 Xrotation Yrotation Zrotation
				JOINT Spine1
				{
					OFFSET 0.000000 11.900002 -1.516600
					CHANNELS 3 Xrotation Yrotation Zrotation
					JOINT Spine2
					{
						OFFSET 0.000000 13.600006 -2.842500
						CHANNELS 3 Xrotation Yrotation Zrotation
						JOINT Neck_virtual
						{
							OFFSET 0.000000 0.000000 0.000000
							CHANNELS 3 Xrotation Yrotation Zrotation
							JOINT Neck
							{
								OFFSET 0.000000 9.624100 -2.890100
								CHANNELS 3 Xrotation Yrotation Zrotation
								JOINT Head
								{
									OFFSET 0.000000 14.068802 -1.351900
									CHANNELS 3 Xrotation Yrotation Zrotation
									End Site
									{
										OFFSET 0 0 0
									}
								}
							}
						}
						JOINT LeftShoulder_virtual
						{
							OFFSET 0.000000 0.000000 0.000000
							CHANNELS 3 Xrotation Yrotation Zrotation
							JOINT LeftShoulder
							{
								OFFSET 15.263000 10.923401 -0.547700
								CHANNELS 3 Xrotation Yrotation Zrotation
								JOINT LeftArm
								{
									OFFSET 25.438599 -2.830597 -13.032500
									CHANNELS 3 Xrotation Yrotation Zrotation
									JOINT LeftForeArm
									{
										OFFSET 29.960503 0.000000 0.000000
										CHANNELS 3 Xrotation Yrotation Zrotation
										JOINT LeftHand
										{
											OFFSET 27.849251 0.000000 0.000000
											CHANNELS 3 Xrotation Yrotation Zrotation
											End Site
											{
												OFFSET 0 0 0
											}
										}
									}
								}
							}
						}
						JOINT RightShoulder_virtual
						{
							OFFSET 0.000000 0.000000 0.000000
							CHANNELS 3 Xrotation Yrotation Zrotation
							JOINT RightShoulder
							{
								OFFSET -15.263000 10.923401 -0.547700
								CHANNELS 3 Xrotation Yrotation Zrotation
								JOINT RightArm
								{
									OFFSET -25.438599 -2.830597 -13.032500
									CHANNELS 3 Xrotation Yrotation Zrotation
									JOINT RightForeArm
									{
										OFFSET -29.960503 0.000000 0.000000
										CHANNELS 3 Xrotation Yrotation Zrotation
										JOINT RightHand
										{
											OFFSET -27.849251 0.000000 0.000000
											CHANNELS 3 Xrotation Yrotation Zrotation
											End Site
											{
												OFFSET 0 0 0
											}
										}
									}
								}
							}
						}
					}
				}
			}
		}
	}
}
MOTION
Frames: 13
Frame Time: 0.03333333
2.583388 112.507538 2.094385 0.000000 0.000000 0.000000 -32.054720 -2.100095 1.396257 -78.571163 1.364938 19.500477 52.749978 18.770168 -12.781937 -5.802909 22.207703 -9.261254 0.000000 0.000000 0.000000 -35.792776 7.949090 -0.009512 -73.748783 4.549173 -14.739774 47.107641 -18.827341 5.546124 -11.304262 -22.182318 5.559968 0.000000 0.000000 0.000000 -22.165371 -6.697108 1.120145 -77.380108 14.722039 19.855831 5.581080 -2.260609 -2.225690 3.275270 -1.023023 -1.485308 0.000000 0.000000 0.000000 4.563779 -1.477219 -1.733817 -0.729301 -0.462316 0.103547 0.000000 0.000000 0.000000 5.370964 -0.252089 -0.876251 2.716630 0.073401 -7.941508 5.868068 -28.416237 -48.626835 17.851012 -70.397831 12.618807 0.000000 0.000000 0.000000 6.218322 -1.104001 1.082600 2.762930 -2.590391 13.222765 -24.916653 43.364687 42.853082 179.356041 67.572598 179.906869 0.000000 0.000000 0.000000 
2.581873 112.456253 1.986406 0.000000 0.000000 0.000000 -32.035571 -2.012239 1.445581 -78.577597 1.371566 19.552813 52.404688 18.896270 -12.751045 -6.083287 22.289052 -9.170408 0.000000 0.000000 0.000000 -35.833239 7.988120 0.038776 -73.790017 4.546773 -14.714026 47.258253 -18.789605 5.606813 -11.187052 -22.175794 5.656948 0.000000 0.000000 0.000000 -22.244611 -6.718420 1.117098 -77.449318 14.536811 19.914824 5.478794 -2.232588 -2.296418 3.223853 -1.003523 -1.529347 0.000000 0.000000 0.000000 4.466735 -1.482223 -1.732600 -0.770895 -0.464919 0.108355 0.000000 0.000000 0.000000 5.334659 -0.263699 -0.877947 2.691868 -0.069213 -7.862806 5.740263 -28.342022 -48.564257 17.812553 -70.360190 12.629693 0.000000 0.000000 0.000000 6.104009 -1.078617 1.002110 2.663586 -2.497673 12.903990 -25.471392 42.912135 43.047134 179.738504 67.742506 179.445421 0.000000 0.000000 0.000000 
2.588243 112.411163 1.935143 0.000000 0.000000 0.000000 -32.027061 -2.084714 1.457168 -78.584646 1.344725 19.583385 52.207043 18.960494 -12.723046 -6.253499 22.320474 -9.107545 0.000000 0.000000 0.000000 -35.896408 8.078329 0.127508 -73.851803 4.546605 -14.663139 47.491869 -18.751685 5.675297 -11.023623 -22.166465 5.754611 0.000000 0.000000 0.000000 -22.319202 -6.725674 1.113983 -77.518078 14.375373 19.958549 5.424517 -2.181323 -2.350426 3.201929 -0.973481 -1.565921 0.000000 0.000000 0.000000 4.450514 -1.473402 -1.729536 -0.774016 -0.458296 0.111974 0.000000 0.000000 0.000000 5.324194 -0.264202 -0.874103 2.680650 -0.167359 -7.788231 5.677275 -28.335586 -48.488787 17.892714 -70.378105 12.744370 0.000000 0.000000 0.000000 6.031420 -1.039620 0.944540 2.591158 -2.370730 12.687884 -25.796945 42.467709 43.093494 -179.983312 68.053765 179.100305 0.000000 0.000000 0.000000 
2.588564 112.387413 1.937731 0.000000 0.000000 0.000000 -32.010351 -2.333796 1.434318 -78.572099 1.280806 19.594812 52.157295 18.964879 -12.681627 -6.306318 22.300228 -9.051101 0.000000 0.000000 0.000000 -35.965215 8.201989 0.220659 -73.916860 4.556468 -14.610634 47.729563 -18.723321 5.729688 -10.865665 -22.156478 5.824498 0.000000 0.000000 0.000000 -22.366107 -6.730818 1.113616 -77.512976 14.254280 19.983149 5.427950 -2.109818 -2.382462 3.213926 -0.934854 -1.591691 0.000000 0.000000 0.000000 4.500651 -1.458126 -1.721516 -0.746486 -0.446568 0.115047 0.000000 0.000000 0.000000 5.331919 -0.251583 -0.867624 2.676970 -0.202386 -7.736651 5.623383 -28.345849 -48.432865 17.989351 -70.420534 12.870078 0.000000 0.000000 0.000000 5.994697 -0.988753 0.900307 2.537743 -2.210759 12.528507 -25.900351 42.090655 42.941881 -179.869262 68.456848 178.912106 0.000000 0.000000 0.000000 
2.589427 112.366142 1.978544 0.000000 0.000000 0.000000 -32.043416 -2.576827 1.401737 -78.600280 1.215238 19.590765 52.173462 18.964338 -12.643407 -6.312615 22.278195 -8.992342 0.000000 0.000000 0.000000 -36.035641 8.298596 0.304652 -73.984445 4.561542 -14.562549 47.996436 -18.715167 5.778658 -10.701214 -22.156557 5.867214 0.000000 0.000000 0.000000 -22.399872 -6.753726 1.113713 -77.476045 14.132694 19.981336 5.474326 -2.029566 -2.396778 3.250292 -0.893824 -1.607987 0.000000 0.000000 0.000000 4.606809 -1.442751 -1.730886 -0.693095 -0.432107 0.104846 0.000000 0.000000 0.000000 5.360906 -0.232877 -0.850290 2.682501 -0.191299 -7.680256 5.602191 -28.413018 -48.372219 18.166780 -70.518466 13.069816 0.000000 0.000000 0.000000 6.000048 -0.932006 0.873848 2.512273 -2.032917 12.441796 -25.687409 41.816928 42.593890 -179.959174 68.930310 178.945615 0.000000 0.000000 0.000000 
2.592197 112.349846 2.047720 0.000000 0.000000 0.000000 -32.123862 -2.805587 1.355369 -78.668671 1.152964 19.569308 52.250705 18.961788 -12.608863 -6.276904 22.256728 -8.930337 0.000000 0.000000 0.000000 -36.111173 8.377049 0.363354 -74.057412 4.572599 -14.530976 48.295653 -18.727854 5.814688 -10.530490 -22.163177 5.870577 0.000000 0.000000 0.000000 -22.432810 -6.786736 1.108894 -77.455295 14.041150 19.946849 5.552221 -1.945103 -2.400663 3.303550 -0.852866 -1.618593 0.000000 0.000000 0.000000 4.777223 -1.427085 -1.737188 -0.610406 -0.415045 0.092259 0.000000 0.000000 0.000000 5.406141 -0.209458 -0.824405 2.693936 -0.133365 -7.629196 5.585266 -28.521753 -48.333813 18.395252 -70.676871 13.314866 0.000000 0.000000 0.000000 6.038647 -0.871619 0.861837 2.508007 -1.846003 12.414107 -25.186201 41.632353 42.013617 179.724666 69.504155 179.203660 0.000000 0.000000 0.000000 
2.592962 112.340744 2.131342 0.000000 0.000000 0.000000 -32.236772 -3.012340 1.301917 -78.764102 1.095518 19.536301 52.384307 18.956488 -12.577612 -6.202202 22.235023 -8.865981 0.000000 0.000000 0.000000 -36.187859 8.482586 0.435121 -74.128945 4.586916 -14.489218 48.559291 -18.736341 5.832777 -10.382727 -22.159975 5.856367 0.000000 0.000000 0.000000 -22.445916 -6.843569 1.105713 -77.366994 13.976640 19.904267 5.666444 -1.863038 -2.392625 3.375124 -0.815396 -1.621786 0.000000 0.000000 0.000000 4.978428 -1.414986 -1.742995 -0.514221 -0.396488 0.075760 0.000000 0.000000 0.000000 5.458091 -0.183379 -0.790057 2.704432 -0.028101 -7.586788 5.528090 -28.641623 -48.326799 18.619967 -70.877597 13.562661 0.000000 0.000000 0.000000 6.118687 -0.815417 0.863738 2.537289 -1.673527 12.440724 -24.312704 41.557316 41.229880 179.143554 70.112022 179.754227 0.000000 0.000000 0.000000 
2.580646 112.323029 2.218372 0.000000 0.000000 0.000000 -32.381688 -3.176656 1.240781 -78.888494 1.049768 19.491507 52.577953 18.950879 -12.557964 -6.088161 22.217902 -8.807463 0.000000 0.000000 0.000000 -36.253900 8.581713 0.509911 -74.189515 4.596103 -14.443359 48.827882 -18.740285 5.845396 -10.233755 -22.149706 5.837189 0.000000 0.000000 0.000000 -22.449626 -6.909642 1.103294 -77.255477 13.951129 19.855800 5.796603 -1.790460 -2.370760 3.452544 -0.784871 -1.615808 0.000000 0.000000 0.000000 5.244937 -1.408075 -1.740628 -0.387272 -0.377087 0.059144 0.000000 0.000000 0.000000 5.519446 -0.160103 -0.746592 2.717989 0.106853 -7.551189 5.495443 -28.799564 -48.345066 18.888033 -71.114256 13.838319 0.000000 0.000000 0.000000 6.234857 -0.769936 0.883005 2.599824 -1.537367 12.534063 -23.094340 41.573818 40.343872 178.334941 70.706187 -179.419002 0.000000 0.000000 0.000000 
2.564990 112.309280 2.320484 0.000000 0.000000 0.000000 -32.547340 -3.317851 1.173042 -79.030917 1.011014 19.437841 52.825646 18.936756 -12.548922 -5.934292 22.199240 -8.761396 0.000000 0.000000 0.000000 -36.299915 8.649139 0.558948 -74.232162 4.603491 -14.415690 49.150017 -18.752614 5.851365 -10.062633 -22.137773 5.794126 0.000000 0.000000 0.000000 -22.443085 -6.973475 1.104594 -77.134364 14.008839 19.833652 5.938245 -1.734660 -2.336094 3.531796 -0.764922 -1.600604 0.000000 0.000000 0.000000 5.529107 -1.404317 -1.743581 -0.253026 -0.354783 0.035520 0.000000 0.000000 0.000000 5.584784 -0.142324 -0.695382 2.730208 0.269230 -7.528164 5.455700 -28.997981 -48.413808 19.186929 -71.401978 14.131176 0.000000 0.000000 0.000000 6.373638 -0.748120 0.923638 2.686863 -1.483860 12.708171 -21.566133 41.582595 39.429128 177.359795 71.282996 -178.368669 0.000000 0.000000 0.000000 
2.542479 112.311295 2.423323 0.000000 0.000000 0.000000 -32.731564 -3.449717 1.100635 -79.190245 0.974353 19.379258 53.146146 18.910232 -12.559362 -5.726672 22.179738 -8.739826 0.000000 0.000000 0.000000 -36.339974 8.736884 0.608794 -74.266641 4.616352 -14.385837 49.415401 -18.758303 5.831093 -9.929707 -22.110477 5.726255 0.000000 0.000000 0.000000 -22.423760 -7.043709 1.106473 -76.972639 14.130955 19.821948 6.087000 -1.696112 -2.282761 3.610668 -0.755127 -1.572574 0.000000 0.000000 0.000000 5.841837 -1.410290 -1.736453 -0.105464 -0.333749 0.012949 0.000000 0.000000 0.000000 5.650779 -0.129825 -0.630485 2.740395 0.458089 -7.492578 5.438785 -29.231038 -48.491703 19.545029 -71.723700 14.472486 0.000000 0.000000 0.000000 6.518374 -0.752525 0.989542 2.785560 -1.522968 12.974696 -19.772172 41.555578 38.543540 176.254398 71.828489 -177.126312 0.000000 0.000000 0.000000 
2.519740 112.303421 2.532850 0.000000 0.000000 0.000000 -32.912769 -3.565595 1.017671 -79.343432 0.948465 19.308550 53.484783 18.865158 -12.579355 -5.493061 22.152701 -8.744763 0.000000 0.000000 0.000000 -36.361940 8.875097 0.664248 -74.279591 4.641119 -14.353832 49.638987 -18.762694 5.784172 -9.825663 -22.071579 5.626697 0.000000 0.000000 0.000000 -22.392591 -7.136569 1.104462 -76.733753 14.301939 19.785812 6.231148 -1.683380 -2.214400 3.682113 -0.759386 -1.533326 0.000000 0.000000 0.000000 6.142364 -1.429076 -1.708261 0.036244 -0.316268 -0.001769 0.000000 0.000000 0.000000 5.706575 -0.120189 -0.553824 2.740994 0.685716 -7.448205 5.392572 -29.439949 -48.584252 19.873800 -72.041263 14.792288 0.000000 0.000000 0.000000 6.648836 -0.782285 1.082263 2.876045 -1.650468 13.339157 -17.835922 41.430439 37.734719 175.081340 72.367056 -175.772897 0.000000 0.000000 0.000000 
2.492032 112.299629 2.652279 0.000000 0.000000 0.000000 -33.084726 -3.632618 0.929642 -79.486545 0.942158 19.228057 53.811580 18.807375 -12.606522 -5.251455 22.122894 -8.774129 0.000000 0.000000 0.000000 -36.353955 9.049210 0.706085 -74.260747 4.680049 -14.334974 49.819912 -18.782768 5.707819 -9.759469 -22.031800 5.478044 0.000000 0.000000 0.000000 -22.350901 -7.242571 1.101691 -76.425609 14.512088 19.740659 6.366564 -1.698671 -2.130541 3.744144 -0.778871 -1.482513 0.000000 0.000000 0.000000 6.429691 -1.468176 -1.671887 0.172262 -0.306925 -0.015542 0.000000 0.000000 0.000000 5.744806 -0.120805 -0.465276 2.725778 0.921331 -7.390844 5.303761 -29.651559 -48.679834 20.185620 -72.373190 15.107678 0.000000 0.000000 0.000000 6.755582 -0.837324 1.196805 2.950711 -1.868174 13.780452 -15.864050 41.186365 37.045010 173.887874 72.853653 -174.372448 0.000000 0.000000 0.000000 
2.464496 112.241440 2.793383 0.000000 0.000000 0.000000 -33.260494 -3.765803 0.794930 -79.632206 0.937831 19.119619 54.151270 18.699144 -12.643338 -4.991946 22.054648 -8.853593 0.000000 0.000000 0.000000 -36.324049 9.293814 0.714253 -74.217006 4.755283 -14.349493 50.025747 -18.828128 5.594442 -9.696683 -21.990378 5.252107 0.000000 0.000000 0.000000 -22.305902 -7.361959 1.093926 -76.065105 14.758080 19.686798 6.505460 -1.738805 -2.033455 3.803641 -0.811591 -1.421122 0.000000 0.000000 0.000000 6.716291 -1.521887 -1.624277 0.309055 -0.302280 -0.026186 0.000000 0.000000 0.000000 5.783215 -0.131098 -0.364755 2.711609 1.165817 -7.316106 5.277131 -29.902018 -48.766092 20.583489 -72.716380 15.489699 0.000000 0.000000 0.000000 6.854618 -0.911732 1.330906 3.026081 -2.146280 14.290751 -13.834996 40.861696 36.510148 172.692017 73.286721 -172.923191 0.000000 0.000000 0.000000 
